<svg width="44" height="47" viewBox="0 0 44 47" fill="none" xmlns="http://www.w3.org/2000/svg">
<g id="&#240;&#159;&#166;&#134; icon &#34;Female Doctor&#34;">
<g id="Group">
<path id="Vector" fill-rule="evenodd" clip-rule="evenodd" d="M10.3065 35.8264C9.25613 36.5152 8.55556 37.7535 8.55556 39.1666C8.55556 41.3297 10.1971 43.0833 12.2222 43.0833C14.2473 43.0833 15.8889 41.3297 15.8889 39.1666C15.8889 37.1768 14.5 35.5336 12.7012 35.283C12.6611 35.1297 12.6193 34.9529 12.5768 34.7545C12.4304 34.0712 12.2907 33.2044 12.1867 32.3139C12.0824 31.4219 12.0177 30.5374 12.0135 29.8154C12.0119 29.5509 12.0186 29.3204 12.0323 29.127C12.5025 28.9829 12.974 28.853 13.4444 28.7386C13.9838 28.6074 14.3031 29.2875 14.5617 29.8386C14.5977 29.9152 14.6326 29.9895 14.6667 30.0587H19.6337C20.753 30.0584 21.3063 30.0585 21.8659 30.0587C22.4127 30.0588 22.9663 30.0589 24.0596 30.0587H29.0269C29.3058 29.4926 29.941 28.5891 30.5556 28.7386C31.211 28.898 31.8688 29.0873 32.522 29.3038L32.518 29.306C32.5165 29.303 32.5166 29.3035 32.5181 29.3078C32.5238 29.3263 32.5507 29.4115 32.5774 29.5966C32.6078 29.8075 32.6289 30.0814 32.6376 30.411C32.655 31.0696 32.6204 31.8699 32.5474 32.6762C32.4743 33.4817 32.3658 34.2615 32.2436 34.8769C32.2166 35.0132 32.1895 35.1378 32.163 35.2499H30.5556C30.0926 35.2499 29.6694 35.5293 29.4624 35.9717L28.2402 38.5828C28.1552 38.764 28.1111 38.9639 28.1111 39.1666V41.7777C28.1111 42.4988 28.6583 43.0833 29.3333 43.0833H31.7778V40.4722H30.5556V39.4747L31.3109 37.8611H34.6891L35.4444 39.4747V40.4722H34.2222V43.0833H36.6667C37.3417 43.0833 37.8889 42.4988 37.8889 41.7777V39.1666C37.8889 38.9639 37.8448 38.764 37.7598 38.5828L36.5376 35.9717C36.3306 35.5293 35.9074 35.2499 35.4444 35.2499H34.6675C34.798 34.5545 34.9067 33.7418 34.9804 32.9278C35.0602 32.0478 35.102 31.1346 35.0811 30.3379L35.0801 30.302C39.9538 32.5015 44 36.1196 44 39.9107V46.9999H0V39.9107C0 35.9518 4.41214 32.1818 9.57122 30.0186C9.58516 30.8301 9.65714 31.7487 9.76091 32.6373C9.87299 33.5963 10.0258 34.5519 10.1941 35.3373C10.2301 35.5056 10.2676 35.6694 10.3065 35.8264ZM12.2222 40.4914C12.8803 40.4914 13.4444 39.9163 13.4444 39.1666C13.4444 38.4168 12.8803 37.8419 12.2222 37.8419C11.5642 37.8419 11 38.4168 11 39.1666C11 39.9163 11.5642 40.4914 12.2222 40.4914Z" fill="#333333"/>
<g id="Mask group">
<mask id="mask0_1025_9353" style="mask-type:luminance" maskUnits="userSpaceOnUse" x="0" y="28" width="44" height="19">
<g id="Group_2">
<path id="Vector_2" fill-rule="evenodd" clip-rule="evenodd" d="M10.3065 35.8264C9.25613 36.5152 8.55556 37.7535 8.55556 39.1666C8.55556 41.3297 10.1971 43.0833 12.2222 43.0833C14.2473 43.0833 15.8889 41.3297 15.8889 39.1666C15.8889 37.1768 14.5 35.5336 12.7012 35.283C12.6611 35.1297 12.6193 34.9529 12.5768 34.7545C12.4304 34.0712 12.2907 33.2044 12.1867 32.3139C12.0824 31.4219 12.0177 30.5374 12.0135 29.8154C12.0119 29.5509 12.0186 29.3204 12.0323 29.127C12.5025 28.9829 12.974 28.853 13.4444 28.7386C13.9838 28.6074 14.3031 29.2875 14.5617 29.8386C14.5977 29.9152 14.6326 29.9895 14.6667 30.0587H19.6337C20.753 30.0584 21.3063 30.0585 21.8659 30.0587C22.4127 30.0588 22.9663 30.0589 24.0596 30.0587H29.0269C29.3058 29.4926 29.941 28.5891 30.5556 28.7386C31.211 28.898 31.8688 29.0873 32.522 29.3038L32.518 29.306C32.5165 29.303 32.5166 29.3035 32.5181 29.3078C32.5238 29.3263 32.5507 29.4115 32.5774 29.5966C32.6078 29.8075 32.6289 30.0814 32.6376 30.411C32.655 31.0696 32.6204 31.8699 32.5474 32.6762C32.4743 33.4817 32.3658 34.2615 32.2436 34.8769C32.2166 35.0132 32.1895 35.1378 32.163 35.2499H30.5556C30.0926 35.2499 29.6694 35.5293 29.4624 35.9717L28.2402 38.5828C28.1552 38.764 28.1111 38.9639 28.1111 39.1666V41.7777C28.1111 42.4988 28.6583 43.0833 29.3333 43.0833H31.7778V40.4722H30.5556V39.4747L31.3109 37.8611H34.6891L35.4444 39.4747V40.4722H34.2222V43.0833H36.6667C37.3417 43.0833 37.8889 42.4988 37.8889 41.7777V39.1666C37.8889 38.9639 37.8448 38.764 37.7598 38.5828L36.5376 35.9717C36.3306 35.5293 35.9074 35.2499 35.4444 35.2499H34.6675C34.798 34.5545 34.9067 33.7418 34.9804 32.9278C35.0602 32.0478 35.102 31.1346 35.0811 30.3379L35.0801 30.302C39.9538 32.5015 44 36.1196 44 39.9107V46.9999H0V39.9107C0 35.9518 4.41214 32.1818 9.57122 30.0186C9.58516 30.8301 9.65714 31.7487 9.76091 32.6373C9.87299 33.5963 10.0258 34.5519 10.1941 35.3373C10.2301 35.5056 10.2676 35.6694 10.3065 35.8264ZM12.2222 40.4914C12.8803 40.4914 13.4444 39.9163 13.4444 39.1666C13.4444 38.4168 12.8803 37.8419 12.2222 37.8419C11.5642 37.8419 11 38.4168 11 39.1666C11 39.9163 11.5642 40.4914 12.2222 40.4914Z" fill="white"/>
</g>
</mask>
<g mask="url(#mask0_1025_9353)">
<path id="Vector_3" d="M10.3056 35.8264L11.5846 38.0516L13.133 37.0361L12.6689 35.1595L10.3056 35.8264ZM12.7003 35.283L10.3459 35.9849L10.7805 37.6488L12.3842 37.8722L12.7003 35.283ZM12.0314 29.1271L11.357 26.6173L9.72191 27.1186L9.59382 28.9306L12.0314 29.1271ZM14.6658 30.0587L12.5028 31.2751L13.1902 32.6698H14.6658V30.0587ZM29.0261 30.0587V32.6698H30.5016L31.189 31.2751L29.0261 30.0587ZM32.5211 29.3039L33.6143 31.6394L39.0533 28.7346L33.2454 26.81L32.5211 29.3039ZM32.5171 29.3061L30.3315 30.4757L31.4256 32.8082L33.6101 31.6416L32.5171 29.3061ZM32.5172 29.3079L34.8987 28.7195L34.8719 28.5957L34.8341 28.4754L32.5172 29.3079ZM32.5172 29.3079L30.1356 29.8965L30.1627 30.0217L30.2012 30.1435L32.5172 29.3079ZM32.5172 29.3079L34.8341 28.4754L34.8332 28.4725L32.5172 29.3079ZM32.1622 35.25V37.8611H34.066L34.5322 35.8893L32.1622 35.25ZM31.7769 43.0833V45.6945H34.2214V43.0833H31.7769ZM31.7769 40.4722H34.2214V37.8611H31.7769V40.4722ZM30.5547 40.4722H28.1102V43.0833H30.5547V40.4722ZM30.5547 39.4748L28.3683 38.3071L28.1102 38.8584V39.4748H30.5547ZM31.31 37.8611V35.25H29.7994L29.1237 36.6933L31.31 37.8611ZM34.6882 37.8611L36.8746 36.6933L36.1989 35.25H34.6882V37.8611ZM35.4436 39.4748H37.888V38.8584L37.63 38.3071L35.4436 39.4748ZM35.4436 40.4722V43.0833H37.888V40.4722H35.4436ZM34.2214 40.4722V37.8611H31.7769V40.4722H34.2214ZM34.2214 43.0833H31.7769V45.6945H34.2214V43.0833ZM34.6666 35.25L32.27 34.7364L31.6832 37.8611H34.6666V35.25ZM35.0802 30.338L37.5237 30.2647V30.2614L35.0802 30.338ZM35.0792 30.3021L36.0306 27.8969L32.5242 26.3143L32.6359 30.3787L35.0792 30.3021ZM43.9991 47V49.6111H46.4436V47H43.9991ZM-0.000868082 47H-2.44531V49.6111H-0.000868082V47ZM9.57035 30.0187L12.0144 29.971L11.9504 26.2156L8.67715 27.5881L9.57035 30.0187ZM10.9991 39.1667C10.9991 38.6986 11.2281 38.2854 11.5846 38.0516L9.02659 33.6012C7.28235 34.7452 6.11024 36.8086 6.11024 39.1667H10.9991ZM12.2214 40.4722C11.5463 40.4722 10.9991 39.8877 10.9991 39.1667H6.11024C6.11024 42.7718 8.84631 45.6945 12.2214 45.6945V40.4722ZM13.4436 39.1667C13.4436 39.8877 12.8964 40.4722 12.2214 40.4722V45.6945C15.5964 45.6945 18.3325 42.7718 18.3325 39.1667H13.4436ZM12.3842 37.8722C12.9812 37.9555 13.4436 38.5054 13.4436 39.1667H18.3325C18.3325 35.8483 16.0168 33.112 13.0165 32.6939L12.3842 37.8722ZM15.0548 34.5813C15.0268 34.4741 14.9943 34.3376 14.9588 34.1719L10.1932 35.3374C10.2427 35.5683 10.2938 35.7854 10.3459 35.9849L15.0548 34.5813ZM14.9588 34.1719C14.8342 33.5905 14.7074 32.8124 14.6114 31.9907L9.76004 32.6373C9.87212 33.5964 10.0249 34.5519 10.1932 35.3374L14.9588 34.1719ZM14.6114 31.9907C14.5149 31.164 14.4605 30.3873 14.457 29.7992L9.56828 29.832C9.57329 30.6876 9.64821 31.6798 9.76004 32.6373L14.6114 31.9907ZM14.457 29.7992C14.4558 29.5874 14.4614 29.43 14.4689 29.3236L9.59382 28.9306C9.57402 29.2109 9.56632 29.5147 9.56828 29.832L14.457 29.7992ZM12.9008 26.1927C12.3851 26.3182 11.8697 26.4601 11.357 26.6173L12.7058 31.6369C13.1335 31.5057 13.5612 31.388 13.9864 31.2846L12.9008 26.1927ZM16.746 28.6682C16.6526 28.4693 16.3751 27.8436 15.9589 27.3279C15.4952 26.7533 14.432 25.8204 12.9008 26.1927L13.9864 31.2846C13.5778 31.384 13.1502 31.3279 12.7885 31.1502C12.4741 30.9959 12.3045 30.7977 12.2561 30.7376C12.2038 30.673 12.1967 30.6479 12.2325 30.7148C12.2676 30.7801 12.3059 30.8603 12.3757 31.0089L16.746 28.6682ZM16.8288 28.8423C16.8081 28.8003 16.7844 28.75 16.746 28.6682L12.3757 31.0089C12.4093 31.0806 12.4553 31.1788 12.5028 31.2751L16.8288 28.8423ZM19.6328 27.4476H14.6658V32.6698H19.6328V27.4476ZM21.866 27.4476C21.3061 27.4475 20.7526 27.4474 19.6328 27.4476V32.6698C20.7516 32.6696 21.305 32.6697 21.8646 32.6698L21.866 27.4476ZM24.0587 27.4476C22.9659 27.4479 22.4126 27.4478 21.866 27.4476L21.8646 32.6698C22.4115 32.67 22.9654 32.6701 24.0592 32.6698L24.0587 27.4476ZM29.0261 27.4476H24.0587L24.0592 32.6698H29.0261V27.4476ZM31.0975 26.1927C29.5146 25.8077 28.3686 26.8388 27.9699 27.2487C27.4579 27.7747 27.0844 28.393 26.863 28.8423L31.189 31.2751C31.2087 31.2353 31.2428 31.1739 31.2848 31.111C31.3048 31.0812 31.3229 31.0567 31.3376 31.0379C31.3528 31.0187 31.3605 31.0109 31.3592 31.0122C31.3585 31.0128 31.3409 31.0311 31.3048 31.0589C31.2694 31.0861 31.2021 31.1336 31.102 31.1819C30.8972 31.2807 30.5019 31.4037 30.0119 31.2846L31.0975 26.1927ZM33.2454 26.81C32.5342 26.5743 31.8158 26.3675 31.0975 26.1927L30.0119 31.2846C30.6044 31.4288 31.2017 31.6006 31.7968 31.7977L33.2454 26.81ZM33.6101 31.6416L33.6143 31.6394L31.428 26.9684L31.4239 26.9706L33.6101 31.6416ZM34.8341 28.4754C34.8316 28.4677 34.8366 28.4836 34.8416 28.5C34.8438 28.5073 34.8526 28.5362 34.8629 28.5735C34.8679 28.5922 34.8777 28.6288 34.8886 28.6752C34.8954 28.7047 34.9218 28.8178 34.9399 28.9655C34.948 29.0318 34.967 29.2009 34.9582 29.4177C34.9559 29.4728 34.953 30.2523 34.4014 30.9662C34.0403 31.4335 33.4875 31.8107 32.8036 31.8971C32.1971 31.9739 31.7253 31.7916 31.4808 31.6695C31.0355 31.4472 30.7719 31.135 30.7237 31.0797C30.5628 30.8942 30.4638 30.7227 30.4523 30.7034C30.4194 30.6479 30.3954 30.603 30.3848 30.5828C30.3626 30.5404 30.3463 30.5067 30.3428 30.4994C30.337 30.4872 30.3326 30.4778 30.3315 30.4757L34.7025 28.1364C34.7012 28.1336 34.6964 28.1235 34.6904 28.1108C34.6867 28.103 34.6702 28.0688 34.6478 28.0262C34.637 28.0057 34.6131 27.9607 34.5801 27.9052C34.5685 27.8856 34.4696 27.7142 34.3085 27.5287C34.2603 27.4733 33.9967 27.1612 33.5515 26.9388C33.3069 26.8166 32.835 26.6344 32.2285 26.7112C31.5447 26.7977 30.9919 27.1748 30.6308 27.6421C30.0792 28.356 30.0762 29.1356 30.074 29.1907C30.0651 29.4075 30.0841 29.5767 30.0923 29.643C30.1104 29.7907 30.1368 29.9039 30.1437 29.9335C30.1545 29.9801 30.1643 30.017 30.1694 30.0356C30.1798 30.0735 30.1888 30.1027 30.1912 30.1108C30.1946 30.1223 30.1976 30.1315 30.1984 30.1343C30.199 30.1363 30.1995 30.138 30.1998 30.1388C30.2001 30.1397 30.2004 30.1405 30.2004 30.1406L34.8341 28.4754ZM34.9925 29.1992C34.9432 28.8572 34.8817 28.6265 34.8341 28.4754L30.2004 30.1406C30.2004 30.1406 30.1971 30.1304 30.1933 30.1175C30.1895 30.1048 30.1857 30.0919 30.182 30.0788C30.1747 30.0526 30.1693 30.0308 30.1654 30.014C30.1577 29.9807 30.1575 29.9723 30.1606 29.9944L34.9925 29.1992ZM35.0802 30.338C35.0698 29.9402 35.0433 29.5511 34.9925 29.1992L30.1606 29.9944C30.1707 30.0638 30.1864 30.2227 30.1933 30.4843L35.0802 30.338ZM34.9795 32.9278C35.0593 32.0479 35.1011 31.1346 35.0802 30.338L30.1933 30.4843C30.207 31.0046 30.1798 31.6919 30.1135 32.4248L34.9795 32.9278ZM34.634 35.419C34.7792 34.6881 34.8998 33.8087 34.9795 32.9278L30.1135 32.4248C30.0472 33.1549 29.9508 33.8352 29.8515 34.3352L34.634 35.419ZM34.5322 35.8893C34.5672 35.741 34.6012 35.5838 34.634 35.419L29.8515 34.3352C29.8302 34.4429 29.8101 34.5347 29.7921 34.6106L34.5322 35.8893ZM30.5547 37.8611H32.1622V32.6389H30.5547V37.8611ZM31.6478 37.1394C31.4408 37.5817 31.0177 37.8611 30.5547 37.8611V32.6389C29.1659 32.6389 27.8962 33.4771 27.2751 34.8039L31.6478 37.1394ZM30.4256 39.7505L31.6478 37.1394L27.2751 34.8039L26.0529 37.415L30.4256 39.7505ZM30.5547 39.1667C30.5547 39.3693 30.5106 39.5692 30.4256 39.7505L26.0529 37.415C25.7983 37.9589 25.6658 38.5586 25.6658 39.1667H30.5547ZM30.5547 41.7778V39.1667H25.6658V41.7778H30.5547ZM29.3325 40.4722C30.0075 40.4722 30.5547 41.0567 30.5547 41.7778H25.6658C25.6658 43.9408 27.3074 45.6945 29.3325 45.6945V40.4722ZM31.7769 40.4722H29.3325V45.6945H31.7769V40.4722ZM29.3325 40.4722V43.0833H34.2214V40.4722H29.3325ZM30.5547 43.0833H31.7769V37.8611H30.5547V43.0833ZM28.1102 39.4748V40.4722H32.9991V39.4748H28.1102ZM29.1237 36.6933L28.3683 38.3071L32.7411 40.6426L33.4965 39.0288L29.1237 36.6933ZM34.6882 35.25H31.31V40.4722H34.6882V35.25ZM37.63 38.3071L36.8746 36.6933L32.5018 39.0288L33.2571 40.6426L37.63 38.3071ZM37.888 40.4722V39.4748H32.9991V40.4722H37.888ZM34.2214 43.0833H35.4436V37.8611H34.2214V43.0833ZM36.6658 43.0833V40.4722H31.7769V43.0833H36.6658ZM36.6658 40.4722H34.2214V45.6945H36.6658V40.4722ZM35.4436 41.7778C35.4436 41.0567 35.9908 40.4722 36.6658 40.4722V45.6945C38.6909 45.6945 40.3325 43.9408 40.3325 41.7778H35.4436ZM35.4436 39.1667V41.7778H40.3325V39.1667H35.4436ZM35.5726 39.7505C35.4877 39.5692 35.4436 39.3693 35.4436 39.1667H40.3325C40.3325 38.5586 40.2 37.9589 39.9454 37.415L35.5726 39.7505ZM34.3504 37.1394L35.5726 39.7505L39.9454 37.415L38.7232 34.8039L34.3504 37.1394ZM35.4436 37.8611C34.9806 37.8611 34.5575 37.5817 34.3504 37.1394L38.7232 34.8039C38.102 33.4771 36.8324 32.6389 35.4436 32.6389V37.8611ZM34.6666 37.8611H35.4436V32.6389H34.6666V37.8611ZM32.5465 32.6762C32.4792 33.4188 32.3814 34.1425 32.27 34.7364L37.0633 35.7635C37.213 34.9666 37.3324 34.0648 37.4126 33.1793L32.5465 32.6762ZM32.6367 30.4111C32.6541 31.0696 32.6195 31.8699 32.5465 32.6762L37.4126 33.1793C37.499 32.226 37.5482 31.1995 37.5237 30.2647L32.6367 30.4111ZM32.6359 30.3787L32.6369 30.4146L37.5237 30.2614L37.5227 30.2255L32.6359 30.3787ZM46.4436 39.9107C46.4436 37.0023 44.9093 34.5128 43.0551 32.6211C41.1654 30.6936 38.661 29.0839 36.0306 27.8969L34.1279 32.7073C36.3712 33.7198 38.3267 35.0188 39.6786 36.3979C41.0658 37.813 41.5547 39.0279 41.5547 39.9107H46.4436ZM46.4436 47V39.9107H41.5547V47H46.4436ZM-0.000868082 49.6111H43.9991V44.3889H-0.000868082V49.6111ZM-2.44531 39.9107V47H2.44358V39.9107H-2.44531ZM8.67715 27.5881C5.89562 28.7544 3.2231 30.3883 1.20028 32.3646C-0.777786 34.2972 -2.44531 36.8765 -2.44531 39.9107H2.44358C2.44358 38.9861 2.98212 37.7009 4.49989 36.218C5.97287 34.7788 8.08609 33.446 10.4636 32.4492L8.67715 27.5881ZM7.1264 30.0662C7.14217 30.9948 7.22332 32.0091 7.33442 32.9606L12.1858 32.314C12.0892 31.4883 12.0263 30.6654 12.0144 29.971L7.1264 30.0662ZM7.33442 32.9606C7.45457 33.9885 7.62018 35.0326 7.81035 35.9202L12.5759 34.7546C12.4295 34.0712 12.2898 33.2045 12.1858 32.314L7.33442 32.9606ZM7.81035 35.9202C7.85166 36.1123 7.89554 36.3046 7.94223 36.4934L12.6689 35.1595C12.638 35.0343 12.607 34.8989 12.5759 34.7546L7.81035 35.9202ZM10.9991 39.1667C10.9991 38.4634 11.5396 37.8803 12.2214 37.8803V43.1025C14.2192 43.1025 15.888 41.3693 15.888 39.1667H10.9991ZM12.2214 40.453C11.5396 40.453 10.9991 39.8699 10.9991 39.1667H15.888C15.888 36.9639 14.2192 35.2308 12.2214 35.2308V40.453ZM13.4436 39.1667C13.4436 39.8699 12.9031 40.453 12.2214 40.453V35.2308C10.2235 35.2308 8.55469 36.9639 8.55469 39.1667H13.4436ZM12.2214 37.8803C12.9031 37.8803 13.4436 38.4634 13.4436 39.1667H8.55469C8.55469 41.3693 10.2235 43.1025 12.2214 43.1025V37.8803Z" fill="#333333"/>
</g>
</g>
<path id="Vector_4" d="M8.55469 18.5022C8.55469 24.5583 18.3202 26.1111 18.3202 26.1111C18.3202 26.1111 11.9325 14.3871 15.2769 12.3684C18.6213 10.3497 26.8302 6.84803 27.4991 8.24563C33.6528 18.1838 26.3468 26.1111 26.3468 26.1111C26.3468 26.1111 35.4436 25.1795 35.4436 18.5022C35.4436 11.8249 31.1627 4.1228 31.1627 4.1228C31.1627 4.1228 28.0859 0 22.066 0C16.0462 0 13.9057 4.1228 13.9057 4.1228C13.9057 4.1228 8.55469 12.4461 8.55469 18.5022Z" fill="#333333"/>
</g>
</g>
</svg>
