<svg width="43" height="30" viewBox="0 0 43 30" fill="none" xmlns="http://www.w3.org/2000/svg">
<path id="Vector" d="M39.875 12.9167H8.7425L18.2713 3.83334C18.7168 3.40789 18.9312 2.85939 18.8672 2.3085C18.8032 1.75761 18.4661 1.24946 17.93 0.895838C17.3939 0.542216 16.7028 0.372087 16.0087 0.422878C15.3146 0.473669 14.6743 0.74122 14.2287 1.16667L1.10375 13.6667C1.01545 13.7661 0.936483 13.8705 0.8675 13.9792C0.8675 14.0833 0.8675 14.1458 0.68375 14.25C0.564768 14.4889 0.50247 14.7432 0.5 15C0.50247 15.2569 0.564768 15.5111 0.68375 15.75C0.68375 15.8542 0.68375 15.9167 0.8675 16.0208C0.936483 16.1295 1.01545 16.2339 1.10375 16.3333L14.2287 28.8333C14.4756 29.0685 14.7846 29.2576 15.134 29.3873C15.4833 29.5169 15.8644 29.5838 16.25 29.5833C16.8633 29.5843 17.4577 29.4148 17.93 29.1042C18.1958 28.9293 18.4155 28.7145 18.5766 28.4721C18.7376 28.2297 18.8368 27.9645 18.8685 27.6916C18.9002 27.4187 18.8638 27.1436 18.7613 26.8819C18.6588 26.6202 18.4923 26.3772 18.2713 26.1667L8.7425 17.0833H39.875C40.5712 17.0833 41.2389 16.8638 41.7312 16.4731C42.2234 16.0824 42.5 15.5525 42.5 15C42.5 14.4475 42.2234 13.9176 41.7312 13.5269C41.2389 13.1362 40.5712 12.9167 39.875 12.9167Z" fill="#231F20"/>
</svg>
